<svg width="12" height="16" viewBox="0 0 12 16" fill="none" xmlns="http://www.w3.org/2000/svg">
<path d="M1.83442 11.0374L5.42779 13.219L4.3 14.98C3.73706 14.6807 3.35665 14.5851 3.15877 14.6933C2.96089 14.8016 2.76361 14.9865 2.56691 15.2482H0.592082C0.42865 15.2482 0.336163 15.0641 0.438669 14.9368C0.842725 14.435 1.20428 14.0828 1.20548 13.83C1.20692 13.5278 1.19781 13.1806 0.706632 12.7984L1.83442 11.0374ZM8.87401 0.818568L11.4423 2.44527C11.7253 2.59849 11.8223 2.93783 11.6589 3.20321L5.88532 12.4265L2.29195 10.2449L8.06551 1.02166C8.22895 0.756277 8.59093 0.665351 8.87401 0.818568Z"/>
</svg>
