<svg width="16" height="16" viewBox="0 0 16 16" fill="none" xmlns="http://www.w3.org/2000/svg">
<g clip-path="url(#clip0_10578_23482)">
<path fill-rule="evenodd" clip-rule="evenodd" d="M13.7784 9.76516C13.9689 9.76516 14.1256 9.90998 14.1445 10.0955L14.1464 10.1332L14.1463 13.2985C14.1463 13.3655 14.128 13.4312 14.0935 13.4885C13.9955 13.651 13.792 13.7106 13.6238 13.6326L13.5883 13.6137L10.9629 12.0311C10.9116 12.0002 10.8686 11.9572 10.8377 11.9059C10.7398 11.7434 10.7821 11.5356 10.9297 11.4233L10.9629 11.4007L13.5884 9.818C13.6457 9.78343 13.7114 9.76516 13.7784 9.76516ZM8.92559 11.0971C9.09642 11.0971 9.2349 11.2356 9.2349 11.4064V12.025C9.2349 12.1958 9.09642 12.3343 8.92559 12.3343H2.12083C1.95001 12.3343 1.81152 12.1958 1.81152 12.025V11.4064C1.81152 11.2356 1.95001 11.0971 2.12083 11.0971H8.92559ZM12.6373 6.76681C12.8081 6.76681 12.9466 6.90529 12.9466 7.07611V7.69473C12.9466 7.86555 12.8081 8.00404 12.6373 8.00404H2.12083C1.95001 8.00404 1.81152 7.86555 1.81152 7.69473V7.07611C1.81152 6.90529 1.95001 6.76681 2.12083 6.76681H12.6373ZM12.6373 2.43652C12.8081 2.43652 12.9466 2.57501 12.9466 2.74583V3.36445C12.9466 3.53527 12.8081 3.67375 12.6373 3.67375H2.12083C1.95001 3.67375 1.81152 3.53527 1.81152 3.36445V2.74583C1.81152 2.57501 1.95001 2.43652 2.12083 2.43652H12.6373Z" />
</g>
<defs>
<clipPath id="clip0_10578_23482">
<rect width="16" height="16" fill="white"/>
</clipPath>
</defs>
</svg>
