<svg width="15" height="15" viewBox="0 0 15 15" fill="none" xmlns="http://www.w3.org/2000/svg">
<path fill-rule="evenodd" clip-rule="evenodd" d="M0.212128 3.59274C0.212128 3.11046 0.603091 2.7195 1.08537 2.7195H8.50792C11.6789 2.7195 14.184 5.39549 14.184 8.61387C14.184 11.8323 11.6789 14.5083 8.50792 14.5083H5.51822C5.24208 14.5083 5.01822 14.2844 5.01822 14.0083V13.2618C5.01822 12.9856 5.24208 12.7618 5.51822 12.7618H8.50792C10.642 12.7618 12.4375 10.9417 12.4375 8.61387C12.4375 6.28607 10.642 4.46598 8.50792 4.46598H1.08537C0.603091 4.46598 0.212128 4.07502 0.212128 3.59274Z" />
<path fill-rule="evenodd" clip-rule="evenodd" d="M4.14962 0.881396C4.34489 1.07666 4.34489 1.39324 4.14962 1.5885L2.10819 3.62994L4.14962 5.67137C4.34489 5.86663 4.34489 6.18321 4.14962 6.37848L3.62178 6.90632C3.42652 7.10158 3.10994 7.10158 2.91467 6.90632L0.255766 4.24741C-0.0852554 3.90639 -0.0852554 3.35348 0.255766 3.01246L2.91467 0.353553C3.10994 0.158291 3.42652 0.158291 3.62178 0.353553L4.14962 0.881396Z" />
</svg>
