<svg width="16" height="17" viewBox="0 0 16 17" fill="none" xmlns="http://www.w3.org/2000/svg">
<path d="M15.3333 14.6682H0.666667C0.489856 14.6682 0.320287 14.7385 0.195262 14.8635C0.070238 14.9885 0 15.1581 0 15.3349C0 15.5117 0.070238 15.6813 0.195262 15.8063C0.320287 15.9313 0.489856 16.0016 0.666667 16.0016H15.3333C15.5101 16.0016 15.6797 15.9313 15.8047 15.8063C15.9298 15.6813 16 15.5117 16 15.3349C16 15.1581 15.9298 14.9885 15.8047 14.8635C15.6797 14.7385 15.5101 14.6682 15.3333 14.6682ZM1.97333 7.2949H5.33333V12.2682C5.3333 12.4569 5.40733 12.6381 5.53948 12.7727C5.67164 12.9073 5.85136 12.9847 6.04 12.9882H10.04C10.2144 12.9655 10.3743 12.8796 10.4898 12.747C10.6052 12.6144 10.6681 12.4441 10.6667 12.2682V7.2949H14.0133C14.1403 7.29917 14.2655 7.26475 14.3725 7.19622C14.4794 7.12768 14.563 7.02826 14.6122 6.91114C14.6614 6.79401 14.6738 6.66471 14.6478 6.54037C14.6218 6.41603 14.5586 6.30253 14.4667 6.2149L8.45333 0.188238C8.39388 0.128573 8.32322 0.081232 8.24543 0.0489299C8.16764 0.0166277 8.08423 0 8 0C7.91577 0 7.83236 0.0166277 7.75457 0.0489299C7.67678 0.081232 7.60612 0.128573 7.54667 0.188238L1.52 6.2149C1.42804 6.30253 1.36488 6.41603 1.33889 6.54037C1.3129 6.66471 1.32531 6.79401 1.37447 6.91114C1.42363 7.02826 1.50723 7.12768 1.61418 7.19622C1.72113 7.26475 1.84638 7.29917 1.97333 7.2949Z" />
</svg>
