<svg width="44" height="36" viewBox="0 0 44 36" fill="none" xmlns="http://www.w3.org/2000/svg">
<path fill-rule="evenodd" clip-rule="evenodd" d="M37.3015 15.6691C37.1417 7.35593 30.3514 0.666016 22 0.666016C13.5472 0.666016 6.69565 7.51758 6.69565 15.9704V18.2813C5.21686 17.6359 3.51232 17.7797 2.1625 18.6636C0.812672 19.5476 -0.000459068 21.0525 1.94443e-07 22.666V30.3182C1.94443e-07 32.9595 2.14125 35.1008 4.78261 35.1008C7.42397 35.1008 9.56522 32.9595 9.56522 30.3182V15.9704L9.56904 15.6767C9.72496 8.94471 15.2307 3.53558 22 3.53558C28.8678 3.53558 34.4348 9.10254 34.4348 15.9704V30.3182C34.4348 32.9595 36.576 35.1008 39.2174 35.1008C41.8588 35.1008 44 32.9595 44 30.3182V22.666C44.0005 21.0525 43.1873 19.5476 41.8375 18.6636C40.4877 17.7797 38.7831 17.6359 37.3043 18.2813V15.9704L37.3015 15.6691ZM22.4402 17.536L22.4019 17.4107V17.4117C22.0251 16.3117 20.5214 16.0898 19.8547 17.0884L16.4476 22.1876L13.3915 22.1886L13.2538 22.1953C12.492 22.2691 11.9223 22.9278 11.9591 23.6923C11.9959 24.4567 12.6262 25.0577 13.3915 25.0581H17.2138L17.3572 25.0514C17.7841 25.0086 18.1694 24.777 18.4075 24.4201L20.4401 21.3765L22.5244 29.7116L22.5626 29.8417C22.9672 31.0153 24.6249 31.155 25.1998 30.0043L27.6695 25.0572L30.6089 25.0581L30.7466 25.0514C31.5084 24.9776 32.0781 24.3188 32.0413 23.5544C32.0045 22.7899 31.3742 22.1889 30.6089 22.1886H26.7828L26.6479 22.1933C26.1548 22.2399 25.7205 22.5374 25.4991 22.9806L24.3666 25.2475L22.4402 17.536Z" />
</svg>
