<svg width="48" height="48" viewBox="0 0 48 48" fill="none" xmlns="http://www.w3.org/2000/svg">
<path fill-rule="evenodd" clip-rule="evenodd" d="M33.3599 13.7692C33.3599 8.92612 29.1693 5 23.9999 5C19.9157 5 16.4424 7.45081 15.1642 10.8683L33.3188 24.8279C33.346 24.5554 33.3599 24.2792 33.3599 24V13.7692ZM14.6399 24V21.8183L27.8663 31.9885C26.6878 32.4899 25.3787 32.7692 23.9999 32.7692C18.8306 32.7692 14.6399 28.8431 14.6399 24ZM23.9999 35C26.1136 35 28.0996 34.4535 29.8245 33.4941L33.2016 36.0909C31.1136 37.5613 28.658 38.5448 25.9999 38.8762V39.8H29.1999C30.0836 39.8 30.7999 40.5163 30.7999 41.4C30.7999 42.2837 30.0836 43 29.1999 43H18.7999C17.9162 43 17.1999 42.2837 17.1999 41.4C17.1999 40.5163 17.9162 39.8 18.7999 39.8H21.9999V38.8762C14.1073 37.892 7.9999 31.1592 7.9999 23C7.9999 21.8954 8.89533 21 9.9999 21C11.1045 21 11.9999 21.8954 11.9999 23C11.9999 29.6274 17.3725 35 23.9999 35ZM39.9999 23C39.9999 25.1425 39.5788 27.1866 38.8149 29.0541L35.4837 26.4926C35.8011 25.4478 35.9797 24.3426 35.9983 23.1984L35.9999 23C35.9999 21.8954 36.8953 21 37.9999 21C39.1045 21 39.9999 21.8954 39.9999 23ZM41.2353 38.4852C41.892 38.9902 42.8338 38.8672 43.3388 38.2105C43.8437 37.5537 43.7207 36.612 43.064 36.107L7.39074 8.67675C6.73401 8.17177 5.79226 8.29479 5.28728 8.95152C4.78231 9.60824 4.90532 10.55 5.56205 11.055L41.2353 38.4852Z" fill="#F53F3F"/>
</svg>
