<svg width="48" height="48" viewBox="0 0 48 48" fill="none" xmlns="http://www.w3.org/2000/svg">
<path fill-rule="evenodd" clip-rule="evenodd" d="M33.36 13.7692C33.36 8.92612 29.1694 5 24 5C18.8307 5 14.64 8.92612 14.64 13.7692V24C14.64 28.8431 18.8307 32.7692 24 32.7692C29.1694 32.7692 33.36 28.8431 33.36 24V13.7692ZM40 23C40 21.8954 39.1046 21 38 21C36.8954 21 36 21.8954 36 23L35.9984 23.1984C35.8924 29.7343 30.5611 35 24 35C17.3726 35 12 29.6274 12 23C12 21.8954 11.1046 21 10 21C8.89543 21 8 21.8954 8 23C8 31.1592 14.1074 37.892 22 38.8762V39.8H18.8C17.9163 39.8 17.2 40.5163 17.2 41.4C17.2 42.2837 17.9163 43 18.8 43H29.2C30.0837 43 30.8 42.2837 30.8 41.4C30.8 40.5163 30.0837 39.8 29.2 39.8H26V38.8762C33.8926 37.892 40 31.1592 40 23Z" fill="black"/>
</svg>
