<svg width="20" height="20" viewBox="0 0 20 20" fill="none" xmlns="http://www.w3.org/2000/svg">
<path fill-rule="evenodd" clip-rule="evenodd" d="M15.9999 3.33398C16.3514 3.33398 16.6393 3.60594 16.6648 3.9509L16.6666 4.00065V16.0007C16.6666 16.3521 16.3946 16.64 16.0497 16.6655L15.9999 16.6673H3.99992C3.64846 16.6673 3.36053 16.3954 3.33508 16.0504L3.33325 16.0007V4.00065C3.33325 3.6492 3.60521 3.36126 3.95016 3.33581L3.99992 3.33398H15.9999ZM13.9218 8.78937C13.9718 8.83938 13.9999 8.90721 13.9999 8.97793V13.8008C13.9999 13.9113 13.9104 14.0008 13.7999 14.0008H8.8161C8.79746 14.0008 8.77941 13.9983 8.76228 13.9935L5.91038 13.9862C5.79992 13.9859 5.71059 13.8961 5.71086 13.7857C5.71098 13.7328 5.73205 13.6821 5.76943 13.6447L8.52464 10.8895C8.62878 10.7854 8.79762 10.7854 8.90176 10.8895L10.1729 12.1608L13.5447 8.78937C13.6488 8.68523 13.8177 8.68523 13.9218 8.78937ZM7.99992 6.00065V8.00065H5.99992V6.00065H7.99992Z"/>
</svg>
