<svg width="16" height="16" viewBox="0 0 16 16" fill="none" xmlns="http://www.w3.org/2000/svg">
<path fill-rule="evenodd" clip-rule="evenodd" d="M14.9945 1.97574C15.3076 1.664 15.3087 1.15747 14.9969 0.844369C14.6852 0.531265 14.1787 0.530155 13.8656 0.841888L0.807692 13.8426C0.494588 14.1544 0.493477 14.6609 0.805211 14.974C1.11694 15.2871 1.62348 15.2882 1.93658 14.9765L14.9945 1.97574ZM10.3551 1.70666C10.6679 1.39468 10.669 0.887734 10.3576 0.574377C10.0461 0.26102 9.53997 0.25991 9.22712 0.571899L0.782117 8.99364C0.469268 9.30563 0.468156 9.81257 0.779635 10.1259C1.09111 10.4393 1.59723 10.4404 1.91008 10.1284L10.3551 1.70666ZM15.2452 10.1412C15.557 10.4543 15.5559 10.9609 15.2428 11.2726L11.2769 15.2211C10.9638 15.5329 10.4573 15.5317 10.1455 15.2186C9.83379 14.9055 9.8349 14.399 10.148 14.0873L14.1139 10.1388C14.427 9.82703 14.9335 9.82814 15.2452 10.1412ZM5.70104 0.555307C6.01278 0.868411 6.01167 1.37494 5.69856 1.68668L1.7327 5.63518C1.4196 5.94692 0.913067 5.94581 0.601333 5.6327C0.2896 5.3196 0.29071 4.81307 0.603814 4.50134L4.56967 0.552827C4.88278 0.241093 5.38931 0.242203 5.70104 0.555307ZM15.2431 5.48844C15.5545 5.8018 15.5534 6.30874 15.2406 6.62073L6.79558 15.0425C6.48273 15.3545 5.97661 15.3533 5.66513 15.04C5.35365 14.7266 5.35476 14.2197 5.66762 13.9077L14.1126 5.48596C14.4255 5.17397 14.9316 5.17508 15.2431 5.48844Z"/>
</svg>
