<svg width="20" height="20" viewBox="0 0 20 20" fill="none" xmlns="http://www.w3.org/2000/svg">
<path fill="#979797" clip-rule="evenodd" d="M9.99967 0.833252C15.0623 0.833252 19.1663 4.93731 19.1663 9.99992C19.1663 15.0625 15.0623 19.1666 9.99967 19.1666C4.93706 19.1666 0.833008 15.0625 0.833008 9.99992C0.833008 4.93731 4.93706 0.833252 9.99967 0.833252ZM10.0003 2.49984C5.85813 2.49984 2.50027 5.85771 2.50027 9.99984C2.50027 14.142 5.85813 17.4998 10.0003 17.4998C14.1424 17.4998 17.5003 14.142 17.5003 9.99984C17.5003 5.85771 14.1424 2.49984 10.0003 2.49984ZM10.833 6.24992C10.833 6.0198 10.6465 5.83325 10.4163 5.83325H9.58301C9.35289 5.83325 9.16634 6.0198 9.16634 6.24992V9.16659H6.24967C6.01956 9.16659 5.83301 9.35313 5.83301 9.58325V10.4166C5.83301 10.6467 6.01956 10.8333 6.24967 10.8333H9.16634V13.7499C9.16634 13.98 9.35289 14.1666 9.58301 14.1666H10.4163C10.6465 14.1666 10.833 13.98 10.833 13.7499V10.8333H13.7497C13.9798 10.8333 14.1663 10.6467 14.1663 10.4166V9.58325C14.1663 9.35313 13.9798 9.16659 13.7497 9.16659H10.833V6.24992Z" />
</svg>
