<svg width="20" height="20" viewBox="0 0 20 20" fill="none" xmlns="http://www.w3.org/2000/svg">
<path fill-rule="evenodd" clip-rule="evenodd" d="M9.99998 2C9.70481 2 9.42226 2.10045 9.21232 2.31038C9.00239 2.52032 8.90194 2.80287 8.90194 3.09804V6.29805C8.90194 6.59322 9.00239 6.87577 9.21232 7.08571C9.42226 7.29564 9.70481 7.39609 9.99998 7.39609C10.2952 7.39609 10.5777 7.29564 10.7876 7.08571C10.9976 6.87577 11.098 6.59322 11.098 6.29805V3.09804C11.098 2.80287 10.9976 2.52032 10.7876 2.31038C10.5777 2.10045 10.2952 2 9.99998 2ZM6.81901 5.27512C6.38426 4.84036 5.70983 4.84036 5.27507 5.27512C4.84032 5.70987 4.84032 6.38431 5.27507 6.81906L6.65546 8.19946C6.74599 8.28998 6.85521 8.37659 6.99317 8.43791C7.13318 8.50013 7.27841 8.52552 7.42743 8.52552C7.66933 8.52552 7.97989 8.41897 8.19941 8.19946C8.63416 7.7647 8.63416 7.09027 8.19941 6.65551L6.81901 5.27512ZM14.3922 5.60782L14.7249 5.27512C14.2902 4.84036 13.6157 4.84036 13.181 5.27512L11.8006 6.65551C11.3658 7.09027 11.3658 7.7647 11.8006 8.19946C11.8911 8.28998 12.0003 8.37659 12.1383 8.43791C12.2783 8.50013 12.4235 8.52552 12.5726 8.52552C12.7216 8.52552 12.8668 8.50013 13.0068 8.43791C13.1448 8.37659 13.254 8.28998 13.3445 8.19946L14.7249 6.81906C15.1597 6.38431 15.1597 5.70987 14.7249 5.27512L14.3922 5.60782ZM10 8.40075C9.11638 8.40075 8.40004 9.11709 8.40004 10.0007C8.40004 10.5724 8.705 11.1006 9.20004 11.3864L9.43533 10.9788L9.20004 11.3864C9.69508 11.6722 10.305 11.6722 10.8 11.3864C11.2951 11.1006 11.6 10.5724 11.6 10.0007C11.6 9.11709 10.8837 8.40075 10 8.40075ZM3.09804 8.902C2.80286 8.902 2.52032 9.00244 2.31038 9.21238C2.10045 9.42231 2 9.70486 2 10C2 10.2952 2.10045 10.5778 2.31038 10.7877C2.52032 10.9976 2.80286 11.0981 3.09804 11.0981H6.29804C6.59321 11.0981 6.87576 10.9976 7.08569 10.7877C7.29563 10.5778 7.39607 10.2952 7.39607 10C7.39607 9.70486 7.29563 9.42231 7.08569 9.21238C6.87576 9.00244 6.59321 8.902 6.29804 8.902H3.09804ZM13.702 8.902C13.4068 8.902 13.1242 9.00244 12.9143 9.21238C12.7044 9.42231 12.6039 9.70486 12.6039 10C12.6039 10.2952 12.7044 10.5778 12.9143 10.7877C13.1242 10.9976 13.4068 11.0981 13.702 11.0981H16.902C17.1971 11.0981 17.4797 10.9976 17.6896 10.7877C17.8996 10.5778 18 10.2952 18 10C18 9.70486 17.8996 9.42231 17.6896 9.21238C17.4797 9.00244 17.1971 8.902 16.902 8.902H13.702ZM8.19941 11.8006C7.76465 11.3658 7.09022 11.3658 6.65546 11.8006L5.27507 13.181C4.84032 13.6157 4.84032 14.2902 5.27507 14.7249L5.60783 14.3922L5.27507 14.7249C5.3656 14.8154 5.47482 14.902 5.61278 14.9634C5.75279 15.0256 5.89802 15.051 6.04704 15.051C6.28894 15.051 6.5995 14.9444 6.81901 14.7249L8.19941 13.3445C8.63416 12.9098 8.63416 12.2353 8.19941 11.8006ZM13.3445 11.8006C12.9098 11.3658 12.2353 11.3658 11.8006 11.8006C11.3658 12.2353 11.3658 12.9098 11.8006 13.3445L13.181 14.7249C13.2715 14.8154 13.3807 14.902 13.5187 14.9634C13.6587 15.0256 13.8039 15.051 13.9529 15.051C14.102 15.051 14.2472 15.0256 14.3872 14.9634C14.5252 14.902 14.6344 14.8154 14.7249 14.7249L14.3922 14.3922L14.7249 14.7249C15.1597 14.2902 15.1597 13.6157 14.7249 13.181L13.3445 11.8006ZM9.99998 12.6039C9.70481 12.6039 9.42226 12.7044 9.21232 12.9143C9.00239 13.1242 8.90194 13.4068 8.90194 13.702V16.902C8.90194 17.1971 9.00239 17.4797 9.21232 17.6896C9.42226 17.8996 9.70481 18 9.99998 18C10.2952 18 10.5777 17.8996 10.7876 17.6896C10.9976 17.4797 11.098 17.1971 11.098 16.902V13.702C11.098 13.4068 10.9976 13.1242 10.7876 12.9143C10.5777 12.7044 10.2952 12.6039 9.99998 12.6039Z"/>
</svg>
