<svg width="16" height="16" viewBox="0 0 16 16" fill="none" xmlns="http://www.w3.org/2000/svg">
<path fill-rule="evenodd" clip-rule="evenodd" d="M12.6988 12.9605L1.94652 2.20823C1.83261 2.09433 1.64794 2.09433 1.53404 2.20823L1.12156 2.62071C1.00766 2.73461 1.00766 2.91928 1.12156 3.03319L11.8738 13.7854C11.9877 13.8994 12.1724 13.8994 12.2863 13.7854L12.6988 13.373C12.8127 13.2591 12.8127 13.0744 12.6988 12.9605ZM1.29174 12.0834V5.16656L8.77863 12.6668H1.87507C1.56755 12.6668 1.31561 12.4288 1.29334 12.127L1.29174 12.0834ZM11.5001 9.73116L11.5416 9.77273L13.7366 10.97C14.1643 11.2033 14.7084 10.9232 14.7084 10.4698V5.53038C14.7084 5.07695 14.1643 4.7969 13.7366 5.03017L11.5001 6.2501V9.73116ZM5.1137 3.33343L10.6251 8.8546V3.91676L10.6235 3.87323C10.6012 3.57139 10.3493 3.33343 10.0417 3.33343H5.1137Z" fill="#F53F3F"/>
</svg>
