<svg width="24" height="24" viewBox="0 0 24 24" fill="none" xmlns="http://www.w3.org/2000/svg">
<path fill-rule="evenodd" clip-rule="evenodd" d="M1.47826 5H15.1739C15.6896 5 16.1121 5.39907 16.1495 5.90525L16.1522 5.97826V19.6739C16.1522 20.1896 15.7531 20.6121 15.2469 20.6495L15.1739 20.6522H1.47826C0.96254 20.6522 0.540028 20.2531 0.502683 19.7469L0.5 19.6739V5.97826C0.5 5.46254 0.89907 5.04003 1.40525 5.00268L1.47826 5H15.1739H1.47826ZM23 8.6843V16.9678C23 17.7282 22.0875 18.1979 21.3703 17.8067L17.6196 15.7608V9.89128L21.3703 7.84544C22.0875 7.45423 23 7.9239 23 8.6843ZM5.88043 8.91322C6.69085 8.91322 7.34782 9.57019 7.34782 10.3806C7.34782 11.191 6.69085 11.848 5.88043 11.848C5.07001 11.848 4.41304 11.191 4.41304 10.3806C4.41304 9.57019 5.07001 8.91322 5.88043 8.91322Z" fill="#1D2129"/>
</svg>
