<svg width="16" height="16" viewBox="0 0 16 16" fill="none" xmlns="http://www.w3.org/2000/svg">
<path fill-rule="evenodd" clip-rule="evenodd" d="M1.87533 3.33334H10.042C10.3495 3.33334 10.6015 3.5713 10.6237 3.87313L10.6253 3.91667V12.0833C10.6253 12.3909 10.3874 12.6428 10.0855 12.6651L10.042 12.6667H1.87533C1.5678 12.6667 1.31586 12.4287 1.29359 12.1269L1.29199 12.0833V3.91667C1.29199 3.60915 1.52996 3.3572 1.83179 3.33494L1.87533 3.33334H10.042H1.87533ZM14.7087 5.53029V10.4697C14.7087 10.9231 14.1646 11.2032 13.7369 10.9699L11.5003 9.75V6.25L13.7369 5.03008C14.1646 4.7968 14.7087 5.07686 14.7087 5.53029ZM4.50033 5.66667C4.98357 5.66667 5.37533 6.05842 5.37533 6.54167C5.37533 7.02492 4.98357 7.41667 4.50033 7.41667C4.01708 7.41667 3.62533 7.02492 3.62533 6.54167C3.62533 6.05842 4.01708 5.66667 4.50033 5.66667Z" fill="#4E5969"/>
</svg>
