<svg width="24" height="25" viewBox="0 0 24 25" fill="none" xmlns="http://www.w3.org/2000/svg">
<path fill-rule="evenodd" clip-rule="evenodd" d="M19.6194 20.9735L1.53149 2.9433C1.33988 2.7523 1.02921 2.7523 0.8376 2.9433L0.143709 3.63497C-0.0479031 3.82597 -0.0479031 4.13565 0.143709 4.32665L18.2316 22.3568C18.4232 22.5478 18.7339 22.5478 18.9255 22.3568L19.6194 21.6651C19.811 21.4741 19.811 21.1645 19.6194 20.9735ZM0.5 19.6726V8.07382L13.0557 20.6508H1.47825C0.962536 20.6508 0.540028 20.2518 0.502683 19.7456L0.5 19.6726ZM17.6196 15.7283L17.6891 15.7978L21.3703 17.8056C22.0876 18.1968 23 17.7272 23 16.9668V8.68403C23 7.9237 22.0876 7.45407 21.3703 7.84525L17.6196 9.8909V15.7283ZM6.90954 5L16.152 14.2582V5.97817L16.1494 5.90517C16.112 5.39904 15.6895 5 15.1738 5H6.90954Z" fill="#F53F3F"/>
</svg>
