<svg width="20" height="20" viewBox="0 0 20 20" fill="none" xmlns="http://www.w3.org/2000/svg">
<path fill-rule="evenodd" clip-rule="evenodd" d="M13.9197 5.91998C13.7245 5.72472 13.4079 5.72472 13.2126 5.91998L10.1218 9.01076L6.90922 5.79813C6.71396 5.60286 6.39738 5.60286 6.20212 5.79813L5.84856 6.15168C5.6533 6.34694 5.6533 6.66353 5.84856 6.85879L9.06118 10.0714L5.84866 13.2839C5.6534 13.4792 5.65339 13.7958 5.84866 13.991L6.20221 14.3446C6.39747 14.5399 6.71406 14.5399 6.90932 14.3446L10.1218 11.1321L13.2125 14.2228C13.4078 14.418 13.7244 14.418 13.9196 14.2228L14.2732 13.8692C14.4684 13.6739 14.4684 13.3574 14.2732 13.1621L11.1825 10.0714L14.2733 6.98064C14.4686 6.78538 14.4686 6.4688 14.2733 6.27354L13.9197 5.91998Z" fill="#86909C"/>
</svg>
