<svg width="20" height="20" viewBox="0 0 20 20" fill="none" xmlns="http://www.w3.org/2000/svg">
<path d="M17.749 11.8096L16.3204 10.9882C15.9752 10.7858 15.7609 10.4167 15.7609 10.012V10.0001C15.7609 9.59532 15.9752 9.22627 16.3204 9.02389L17.749 8.20246C18.0347 8.0358 18.13 7.67865 17.9633 7.39294L16.1776 4.2977C16.0109 4.01199 15.6538 3.91675 15.3681 4.08341L13.9395 4.90484C13.5942 5.10722 13.1657 5.07151 12.8204 4.86913C12.8204 4.86913 12.8085 4.86913 12.8085 4.85722C12.4633 4.64294 12.2371 4.2977 12.2371 3.90484V2.26199C12.2371 1.92865 11.9752 1.66675 11.6419 1.66675H8.07043C7.7371 1.66675 7.47519 1.92865 7.47519 2.26199V3.90484C7.47519 4.2977 7.2371 4.64294 6.90376 4.84532C6.90376 4.84532 6.89186 4.84532 6.89186 4.85722C6.54662 5.05961 6.11805 5.09532 5.77281 4.89294L4.34424 4.07151C4.05853 3.90484 3.68948 4.00008 3.53472 4.2858L1.749 7.38103C1.58234 7.66675 1.67757 8.0358 1.96329 8.19056L3.39186 9.01199C3.7371 9.21437 3.95138 9.58341 3.95138 9.98818V10.0001C3.95138 10.4048 3.7371 10.7739 3.39186 10.9763L1.96329 11.7977C1.67757 11.9763 1.58234 12.3334 1.749 12.6191L3.53472 15.7144C3.70138 16.0001 4.05853 16.0953 4.34424 15.9287L5.77281 15.1072C6.11805 14.9048 6.54662 14.9406 6.89186 15.1429C6.89186 15.1429 6.90376 15.1429 6.90376 15.1548C7.249 15.3572 7.47519 15.7025 7.47519 16.0953V17.7382C7.47519 18.0596 7.7371 18.3334 8.07043 18.3334H11.6419C11.9752 18.3334 12.2371 18.0596 12.2371 17.7382V16.0953C12.2371 15.7025 12.4752 15.3572 12.8085 15.1548C12.8085 15.1548 12.8204 15.1548 12.8204 15.1429C13.1657 14.9406 13.5942 14.9048 13.9395 15.1072L15.3681 15.9287C15.6538 16.0953 16.0228 16.0001 16.1776 15.7144L17.9633 12.6191C18.13 12.3334 18.0347 11.9763 17.749 11.8096ZM9.85615 12.381C8.54662 12.381 7.47519 11.3096 7.47519 10.0001C7.47519 8.69056 8.54662 7.61913 9.85615 7.61913C11.1657 7.61913 12.2371 8.69056 12.2371 10.0001C12.2371 11.3096 11.1657 12.381 9.85615 12.381Z" fill="white"/>
<circle cx="10" cy="10" r="10" fill="#F53F3F"/>
<path d="M2.93299 8.32654C3.95361 7.30592 6.65464 6.66675 9.97423 6.66675C12.0567 6.66675 13.9639 6.92448 15.3351 7.3884C16.7268 7.86262 17.4897 8.52242 17.4897 9.25438V10.9966L17.5 11.007C17.5 11.0276 17.4897 11.0482 17.4897 11.0791C17.4485 11.3575 17.3247 11.6049 17.1289 11.8008C16.8608 12.0688 16.4897 12.2028 16.1186 12.1513L13.9021 11.8936C13.2526 11.8317 12.7887 11.3162 12.7887 10.6667L12.7268 9.52242L12.6546 9.5018C11.6753 9.26469 10.7887 9.15128 9.9433 9.15128C9.09794 9.15128 8.21134 9.26469 7.23196 9.5018L7.1701 9.52242V10.6771C7.1701 11.0173 7.04639 11.3265 6.80928 11.5533C6.60309 11.7595 6.34536 11.8729 6.0567 11.9039L3.85052 12.1513H3.7268C3.40722 12.1616 3.10825 12.0482 2.88144 11.8317C2.63402 11.6049 2.5 11.275 2.5 10.9245V9.22345C2.51031 8.90386 2.65464 8.60489 2.93299 8.32654Z" fill="white"/>
</svg>
