<svg width="16" height="16" viewBox="0 0 16 16" fill="none" xmlns="http://www.w3.org/2000/svg">
<path d="M12 4.71847V11.8914C12 12.9803 11.1432 14 10.0485 14H6.37054C5.83346 14 5.3359 13.6581 4.96381 13.282C4.96381 13.282 2.49324 9.51437 2.17959 8.96307C1.63048 7.99979 2.44942 7.39293 3.17297 7.89807C3.26234 7.96047 4.54016 9.45539 4.54016 9.45539V3.97828C4.54016 3.8809 4.55945 3.78448 4.59691 3.69452C4.63437 3.60456 4.68928 3.52282 4.75851 3.45397C4.82773 3.38512 4.90991 3.3305 5.00035 3.29324C5.0908 3.25598 5.18774 3.2368 5.28563 3.2368C5.38353 3.2368 5.48047 3.25598 5.57091 3.29324C5.66136 3.3305 5.74354 3.38512 5.81276 3.45397C5.88198 3.52282 5.93689 3.60456 5.97436 3.69452C6.01182 3.78448 6.0311 3.8809 6.0311 3.97828V7.43994H6.53037V2.74148C6.53037 2.54483 6.60891 2.35623 6.74871 2.21717C6.88852 2.07812 7.07813 2 7.27584 2C7.47355 2 7.66316 2.07812 7.80296 2.21717C7.94277 2.35623 8.02131 2.54483 8.02131 2.74148V7.43994H8.51886V3.23551C8.51886 3.13814 8.53814 3.04172 8.5756 2.95176C8.61307 2.8618 8.66798 2.78006 8.7372 2.71121C8.80642 2.64236 8.8886 2.58774 8.97905 2.55048C9.06949 2.51321 9.16643 2.49403 9.26433 2.49403C9.36222 2.49403 9.45916 2.51321 9.5496 2.55048C9.64005 2.58774 9.72223 2.64236 9.79145 2.71121C9.86067 2.78006 9.91558 2.8618 9.95305 2.95176C9.99051 3.04172 10.0098 3.13814 10.0098 3.23551V7.43994H10.5073V4.71847C10.5073 4.30906 10.8408 3.97828 11.2541 3.97828C11.6674 3.97828 12 4.30906 12 4.71847Z" fill="#165DFF"/>
</svg>
