<svg width="24" height="24" viewBox="0 0 24 24" fill="none" xmlns="http://www.w3.org/2000/svg">
<path d="M10.2462 3.66702C11.3489 3.66705 12.4184 4.04481 13.2765 4.73742C14.1346 5.43002 14.7296 6.39566 14.9623 7.47356C15.1951 8.55146 15.0516 9.67657 14.5558 10.6616C14.0599 11.6465 13.2416 12.4319 12.2372 12.887C16.1802 14.589 19.6212 20.573 16.7822 20.573H3.45817C1.10317 20.571 4.38917 14.609 8.27517 12.894C7.2676 12.4424 6.44539 11.6589 5.94577 10.6743C5.44615 9.68968 5.29935 8.56347 5.52987 7.48367C5.76039 6.40386 6.35428 5.43578 7.21242 4.741C8.07056 4.04623 9.14103 3.66679 10.2452 3.66602L10.2462 3.66702ZM10.6842 15.07C10.4516 15.07 10.2285 15.1624 10.064 15.3269C9.89957 15.4914 9.80717 15.7144 9.80717 15.947V17.702C9.80717 17.9346 9.89957 18.1577 10.064 18.3221C10.2285 18.4866 10.4516 18.579 10.6842 18.579C10.9168 18.579 11.1398 18.4866 11.3043 18.3221C11.4688 18.1577 11.5612 17.9346 11.5612 17.702V15.947C11.5612 15.7144 11.4688 15.4914 11.3043 15.3269C11.1398 15.1624 10.9168 15.07 10.6842 15.07Z" fill="#1D2129"/>
<path d="M16.3805 4.49397C18.8645 6.39897 18.8545 9.62997 17.1675 11.553C20.2025 14.446 21.5435 17.138 21.0775 19.652C21.0581 19.76 21.0175 19.8632 20.9581 19.9556C20.8987 20.0479 20.8216 20.1276 20.7313 20.19C20.641 20.2524 20.5392 20.2964 20.4318 20.3194C20.3244 20.3423 20.2136 20.3438 20.1056 20.3238C19.9977 20.3038 19.8947 20.2626 19.8027 20.2026C19.7107 20.1427 19.6315 20.0651 19.5696 19.9744C19.5077 19.8837 19.4644 19.7817 19.442 19.6742C19.4197 19.5667 19.4188 19.4558 19.4395 19.348C19.8075 17.36 18.5055 14.962 15.3925 12.183C15.296 12.097 15.2208 11.9896 15.1729 11.8695C15.125 11.7494 15.1057 11.6198 15.1165 11.491C15.1274 11.3621 15.1681 11.2376 15.2355 11.1272C15.3028 11.0168 15.3949 10.9236 15.5045 10.855L15.5485 10.808L15.5975 10.764C16.9965 9.58997 17.1645 7.19597 15.3655 5.81697C15.1901 5.68251 15.0752 5.48385 15.0463 5.26472C15.0173 5.04558 15.0765 4.82391 15.211 4.64847C15.3455 4.47303 15.5441 4.35819 15.7633 4.32922C15.9824 4.30024 16.2041 4.35951 16.3795 4.49397H16.3805Z" fill="#1D2129"/>
</svg>
