<svg width="24" height="24" viewBox="0 0 24 24" fill="none" xmlns="http://www.w3.org/2000/svg">
<path d="M10.246 3.66702C11.3487 3.66705 12.4182 4.04481 13.2763 4.73742C14.1344 5.43002 14.7293 6.39566 14.9621 7.47356C15.1949 8.55146 15.0514 9.67657 14.5556 10.6616C14.0597 11.6465 13.2414 12.4319 12.237 12.887C16.18 14.589 19.621 20.573 16.782 20.573H3.45796C1.10296 20.571 4.38896 14.609 8.27496 12.894C7.26739 12.4424 6.44518 11.6589 5.94556 10.6743C5.44594 9.68968 5.29914 8.56347 5.52966 7.48367C5.76017 6.40386 6.35406 5.43578 7.21221 4.741C8.07035 4.04623 9.14082 3.66679 10.245 3.66602L10.246 3.66702ZM10.684 15.07C10.4514 15.07 10.2283 15.1624 10.0638 15.3269C9.89935 15.4914 9.80696 15.7144 9.80696 15.947V17.702C9.80696 17.9346 9.89935 18.1577 10.0638 18.3221C10.2283 18.4866 10.4514 18.579 10.684 18.579C10.9165 18.579 11.1396 18.4866 11.3041 18.3221C11.4686 18.1577 11.561 17.9346 11.561 17.702V15.947C11.561 15.7144 11.4686 15.4914 11.3041 15.3269C11.1396 15.1624 10.9165 15.07 10.684 15.07Z" fill="white"/>
<path d="M16.3801 4.49397C18.8641 6.39897 18.8541 9.62997 17.1671 11.553C20.2021 14.446 21.5431 17.138 21.0771 19.652C21.0577 19.76 21.0171 19.8632 20.9577 19.9556C20.8982 20.0479 20.8211 20.1276 20.7308 20.19C20.6405 20.2524 20.5387 20.2964 20.4313 20.3194C20.324 20.3423 20.2131 20.3438 20.1052 20.3238C19.9972 20.3038 19.8943 20.2626 19.8023 20.2026C19.7103 20.1427 19.6311 20.0651 19.5692 19.9744C19.5073 19.8837 19.4639 19.7817 19.4416 19.6742C19.4192 19.5667 19.4184 19.4558 19.4391 19.348C19.8071 17.36 18.5051 14.962 15.3921 12.183C15.2955 12.097 15.2203 11.9896 15.1724 11.8695C15.1245 11.7494 15.1052 11.6198 15.1161 11.491C15.127 11.3621 15.1677 11.2376 15.235 11.1272C15.3023 11.0168 15.3945 10.9236 15.5041 10.855L15.5481 10.808L15.5971 10.764C16.9961 9.58997 17.1641 7.19597 15.3651 5.81697C15.1896 5.68251 15.0748 5.48385 15.0458 5.26472C15.0168 5.04558 15.0761 4.82391 15.2106 4.64847C15.345 4.47303 15.5437 4.35819 15.7628 4.32922C15.9819 4.30024 16.2036 4.35951 16.3791 4.49397H16.3801Z" fill="white"/>
</svg>
