<svg width="24" height="24" viewBox="0 0 24 24" fill="none" xmlns="http://www.w3.org/2000/svg">
<path fill-rule="evenodd" clip-rule="evenodd" d="M5.60303 10.7478C5.59218 10.4996 5.41632 10.3049 5.20305 10.3049L4.39119 10.305L4.33534 10.311C4.13744 10.3488 3.99087 10.5542 4.00044 10.7933L4.01212 11.0111C4.30213 15.5276 7.3508 18.777 11.201 19.2212L11.1989 19.267V20.4668H9.1199C8.94317 20.4668 8.7999 20.61 8.7999 20.7868V21.7468C8.7999 21.9235 8.94317 22.0668 9.1199 22.0668H14.8799C15.0566 22.0668 15.1998 21.9235 15.1998 21.7468V20.7868C15.1998 20.61 15.0566 20.4668 14.8799 20.4668H12.8009L12.8004 19.2438L12.7988 19.2212C16.7055 18.7704 19.787 15.4205 19.9986 10.8115L19.9999 10.7715C19.9999 10.5138 19.8206 10.3049 19.5994 10.3049H18.7969C18.5838 10.3049 18.408 10.4993 18.3969 10.7473C18.3959 10.7692 18.3949 10.7895 18.3938 10.8081L18.3839 10.9592C18.0994 14.7765 15.3498 17.4003 11.9999 17.4003C8.61254 17.4003 5.83904 14.7093 5.60728 10.8311L5.60303 10.7478ZM16.7998 6.91365C16.7998 4.16452 14.6508 1.93591 11.9999 1.93591C9.34893 1.93591 7.19991 4.16452 7.19991 6.91365V10.8544C7.19991 13.6036 9.34893 15.8322 11.9999 15.8322C14.6508 15.8322 16.7998 13.6036 16.7998 10.8544V6.91365Z" fill="#1D2129"/>
</svg>
