<svg width="16" height="16" viewBox="0 0 16 16" fill="none" xmlns="http://www.w3.org/2000/svg">
<path fill-rule="evenodd" clip-rule="evenodd" d="M4.00214 7.21735C3.99535 7.06224 3.88544 6.94053 3.75215 6.94052L3.24473 6.9406L3.20982 6.94438C3.08613 6.96797 2.99453 7.09636 3.00051 7.24577L3.00781 7.38192C3.18907 10.2047 5.0945 12.2356 7.50087 12.5132L7.49955 12.5419V13.2919H6.2002C6.08974 13.2919 6.0002 13.3814 6.0002 13.4919V14.0919C6.0002 14.2024 6.08974 14.2919 6.2002 14.2919H9.8002C9.91065 14.2919 10.0002 14.2024 10.0002 14.0919V13.4919C10.0002 13.3814 9.91065 13.2919 9.8002 13.2919H8.50081L8.50054 12.5274L8.49955 12.5132C8.9568 12.4605 9.39596 12.3442 9.80864 12.1711L8.89668 11.2715C8.60846 11.3397 8.3084 11.3752 8.0002 11.3752C5.8831 11.3752 4.14964 9.69329 4.00479 7.26944L4.00214 7.21735ZM12.9995 7.25719C12.9659 7.98767 12.817 8.66754 12.5737 9.2801L11.7737 8.49098C11.8861 8.13467 11.9602 7.75275 11.9902 7.34951L11.9965 7.25507L11.9984 7.21703C12.0053 7.06205 12.1152 6.94052 12.2484 6.94052H12.7499C12.8882 6.94053 13.0002 7.07111 13.0002 7.23219L12.9995 7.25719ZM11.0002 7.28408C11.0002 7.42565 10.9911 7.56501 10.9734 7.70156L5.85191 2.64951C6.39679 2.06989 7.15796 1.70996 8.0002 1.70996C9.65705 1.70996 11.0002 3.10285 11.0002 4.82107V7.28408ZM8.0002 10.3952C6.39086 10.3952 5.0775 9.08105 5.00349 7.43109L8.00833 10.3952L8.0002 10.3952ZM13.9617 12.7362L3.1555 1.93004C3.0416 1.81614 2.85693 1.81614 2.74302 1.93004L2.33054 2.34252C2.21664 2.45642 2.21664 2.64109 2.33054 2.755L13.1367 13.5612C13.2506 13.6751 13.4353 13.6751 13.5492 13.5612L13.9617 13.1487C14.0756 13.0348 14.0756 12.8501 13.9617 12.7362Z" fill="#F53F3F"/>
<path fill-rule="evenodd" clip-rule="evenodd" d="M3.1555 1.93015L13.9617 12.7363C14.0756 12.8502 14.0756 13.0349 13.9617 13.1488L13.5492 13.5613C13.4353 13.6752 13.2506 13.6752 13.1367 13.5613L2.33054 2.75511C2.21664 2.64121 2.21664 2.45654 2.33054 2.34263L2.74302 1.93015C2.85693 1.81625 3.0416 1.81625 3.1555 1.93015Z" fill="#F53F3F"/>
</svg>
