<svg width="24" height="24" viewBox="0 0 24 24" fill="none" xmlns="http://www.w3.org/2000/svg">
<path fill-rule="evenodd" clip-rule="evenodd" d="M5.57931 10.7459C5.56844 10.4973 5.39229 10.3023 5.17866 10.3022L4.36547 10.3024L4.30952 10.3084C4.1113 10.3462 3.96449 10.552 3.97408 10.7915L3.98577 11.0096C4.27626 15.5336 7.32996 18.7883 11.1865 19.2332L11.1844 19.2792V20.481H9.42254C9.0685 20.481 8.78149 20.768 8.78149 21.122V21.4425C8.78149 21.7966 9.0685 22.0836 9.42254 22.0836H14.5509C14.905 22.0836 15.192 21.7966 15.192 21.4425V21.122C15.192 20.768 14.905 20.481 14.5509 20.481H12.789L12.7886 19.2559L12.787 19.2332C13.5199 19.1487 14.2238 18.9622 14.8853 18.6847L13.4238 17.2431C12.9618 17.3525 12.4808 17.4094 11.9867 17.4094C8.59378 17.4094 5.8157 14.7139 5.58356 10.8294L5.57931 10.7459ZM19.9987 10.8098C19.9449 11.9803 19.7064 13.0698 19.3164 14.0514L18.0343 12.7867C18.2145 12.2158 18.3331 11.6038 18.3813 10.9577L18.3912 10.8064C18.3923 10.7877 18.3933 10.7673 18.3943 10.7454C18.4054 10.497 18.5815 10.3022 18.7949 10.3022H19.5987C19.8203 10.3023 19.9999 10.5115 19.9999 10.7697L19.9987 10.8098ZM16.7947 10.8527C16.7947 11.0795 16.7801 11.3028 16.7518 11.5216L8.54402 3.42508C9.41726 2.49622 10.6371 1.91943 11.9868 1.91943C14.6422 1.91943 16.7947 4.15172 16.7947 6.90538V10.8527ZM11.9868 15.8386C9.40761 15.8386 7.30273 13.7324 7.18422 11.0881L12.0001 15.8386L11.9868 15.8386ZM21.4617 19.5275L4.28678 2.35257C4.10575 2.17154 3.81223 2.17154 3.6312 2.35257L2.97562 3.00815C2.79459 3.18919 2.79459 3.4827 2.97562 3.66373L20.1506 20.8387C20.3316 21.0197 20.6251 21.0197 20.8062 20.8387L21.4617 20.1831C21.6428 20.0021 21.6428 19.7086 21.4617 19.5275Z" fill="#F53F3F"/>
</svg>
