<svg width="16" height="16" viewBox="0 0 16 16" fill="none" xmlns="http://www.w3.org/2000/svg">
<path fill-rule="evenodd" clip-rule="evenodd" d="M4.0019 7.21738C3.99512 7.06228 3.8852 6.94057 3.75191 6.94056L3.2445 6.94064L3.20959 6.94442C3.0859 6.96801 2.9943 7.0964 3.00028 7.24581L3.00758 7.38196C3.18883 10.2048 5.09426 12.2357 7.50064 12.5133L7.49932 12.5419V13.2919H6.19996C6.08951 13.2919 5.99996 13.3815 5.99996 13.4919V14.0919C5.99996 14.2024 6.08951 14.2919 6.19996 14.2919H9.79996C9.91042 14.2919 9.99996 14.2024 9.99996 14.0919V13.4919C9.99996 13.3815 9.91042 13.2919 9.79996 13.2919H8.50057L8.5003 12.5274L8.49932 12.5133C10.941 12.2316 12.867 10.1379 12.9992 7.25723L13 7.23222C13 7.07115 12.8879 6.94057 12.7497 6.94056H12.2481C12.1149 6.94056 12.0051 7.06209 11.9981 7.21707L11.9962 7.25511L11.99 7.34955C11.8122 9.73534 10.0937 11.3753 7.99997 11.3753C5.88286 11.3753 4.14941 9.69333 4.00455 7.26948L4.0019 7.21738ZM11 4.82111C11 3.10289 9.65682 1.71 7.99996 1.71C6.34311 1.71 4.99996 3.10289 4.99996 4.82111V7.28412C4.99996 9.00234 6.34311 10.3952 7.99996 10.3952C9.65682 10.3952 11 9.00234 11 7.28412V4.82111Z" fill="#4E5969"/>
</svg>
