<svg width="24" height="24" viewBox="0 0 24 24" fill="none" xmlns="http://www.w3.org/2000/svg">
<path fill-rule="evenodd" clip-rule="evenodd" d="M5.60315 10.7479C5.5923 10.4997 5.41644 10.305 5.20317 10.305L4.39132 10.3051L4.33546 10.3112C4.13756 10.3489 3.991 10.5543 4.00056 10.7934L4.01224 11.0112C4.30225 15.5277 7.35092 18.7771 11.2011 19.2213L11.199 19.2671V20.4669H9.12002C8.94329 20.4669 8.80002 20.6102 8.80002 20.7869V21.7469C8.80002 21.9236 8.94329 22.0669 9.12002 22.0669H14.88C15.0567 22.0669 15.2 21.9236 15.2 21.7469V20.7869C15.2 20.6102 15.0567 20.4669 14.88 20.4669H12.801L12.8005 19.2439L12.799 19.2213C16.7057 18.7705 19.7871 15.4206 19.9988 10.8117L20 10.7716C20 10.5139 19.8207 10.305 19.5995 10.305H18.797C18.5839 10.305 18.4081 10.4994 18.397 10.7474C18.3961 10.7693 18.395 10.7896 18.394 10.8083L18.384 10.9594C18.0996 14.7766 15.35 17.4005 12 17.4005C8.61266 17.4005 5.83916 14.7094 5.6074 10.8313L5.60315 10.7479ZM16.8 6.91377C16.8 4.16464 14.6509 1.93604 12 1.93604C9.34905 1.93604 7.20003 4.16464 7.20003 6.91377V10.8546C7.20003 13.6037 9.34905 15.8323 12 15.8323C14.6509 15.8323 16.8 13.6037 16.8 10.8546V6.91377Z" fill="white"/>
</svg>
