<svg width="24" height="24" viewBox="0 0 24 24" fill="none" xmlns="http://www.w3.org/2000/svg">
<path fill-rule="evenodd" clip-rule="evenodd" d="M20.544 3.4375C21.0683 3.4375 21.4933 3.86253 21.4933 4.38682V15.7787C21.4933 16.303 21.0683 16.728 20.544 16.728H3.45616C2.93186 16.728 2.50684 16.303 2.50684 15.7787V4.38682C2.50684 3.86253 2.93186 3.4375 3.45616 3.4375H20.544ZM21.0187 19.1014C21.2808 19.1014 21.4933 19.3139 21.4933 19.576V20.5253C21.4933 20.7875 21.2808 21 21.0187 21H2.9815C2.71935 21 2.50684 20.7875 2.50684 20.5253V19.576C2.50684 19.3139 2.71935 19.1014 2.9815 19.1014H21.0187ZM11.0216 13.0076C11.0216 13.2697 11.2342 13.4822 11.4963 13.4822H12.4932C12.7553 13.4822 12.9679 13.2697 12.9679 13.0076V10.2327H14.7567C14.8798 10.2327 14.998 10.1849 15.0865 10.0994C15.2751 9.91724 15.2803 9.61675 15.0981 9.42821L12.3242 6.55687C12.2904 6.51163 12.2483 6.47255 12.1999 6.44149C11.9772 6.29859 11.6747 6.35436 11.5244 6.56606L8.87138 9.43578C8.79029 9.52349 8.74525 9.63855 8.74525 9.758C8.74525 10.0202 8.95777 10.2327 9.21992 10.2327H11.0216V13.0076Z" fill="#17D207"/>
</svg>
