<svg width="16" height="16" viewBox="0 0 16 16" fill="none" xmlns="http://www.w3.org/2000/svg">
<path d="M14.5099 9.52L13.3099 8.83C13.0199 8.66 12.8399 8.35 12.8399 8.01V8C12.8399 7.66 13.0199 7.35 13.3099 7.18L14.5099 6.49C14.7499 6.35 14.8299 6.05 14.6899 5.81L13.1899 3.21C13.0499 2.97 12.7499 2.89 12.5099 3.03L11.3099 3.72C11.0199 3.89 10.6599 3.86 10.3699 3.69C10.3699 3.69 10.3599 3.69 10.3599 3.68C10.0699 3.5 9.87987 3.21 9.87987 2.88V1.5C9.87987 1.22 9.65987 1 9.37987 1H6.37987C6.09987 1 5.87987 1.22 5.87987 1.5V2.88C5.87987 3.21 5.67987 3.5 5.39987 3.67C5.39987 3.67 5.38987 3.67 5.38987 3.68C5.09987 3.85 4.73987 3.88 4.44987 3.71L3.24987 3.02C3.00987 2.88 2.69987 2.96 2.56987 3.2L1.06987 5.8C0.929865 6.04 1.00987 6.35 1.24987 6.48L2.44987 7.17C2.73987 7.34 2.91987 7.65 2.91987 7.99V8C2.91987 8.34 2.73987 8.65 2.44987 8.82L1.24987 9.51C1.00987 9.66 0.929865 9.96 1.06987 10.2L2.56987 12.8C2.70987 13.04 3.00987 13.12 3.24987 12.98L4.44987 12.29C4.73987 12.12 5.09987 12.15 5.38987 12.32C5.38987 12.32 5.39987 12.32 5.39987 12.33C5.68987 12.5 5.87987 12.79 5.87987 13.12V14.5C5.87987 14.77 6.09987 15 6.37987 15H9.37987C9.65987 15 9.87987 14.77 9.87987 14.5V13.12C9.87987 12.79 10.0799 12.5 10.3599 12.33C10.3599 12.33 10.3699 12.33 10.3699 12.32C10.6599 12.15 11.0199 12.12 11.3099 12.29L12.5099 12.98C12.7499 13.12 13.0599 13.04 13.1899 12.8L14.6899 10.2C14.8299 9.96 14.7499 9.66 14.5099 9.52ZM7.87987 10C6.77987 10 5.87987 9.1 5.87987 8C5.87987 6.9 6.77987 6 7.87987 6C8.97987 6 9.87987 6.9 9.87987 8C9.87987 9.1 8.97987 10 7.87987 10Z" fill="#4E5969"/>
</svg>
