<svg width="24" height="24" viewBox="0 0 24 24" fill="none" xmlns="http://www.w3.org/2000/svg">
<path d="M21.2984 14.1714L19.5841 13.1857C19.1698 12.9429 18.9127 12.5 18.9127 12.0143V12C18.9127 11.5143 19.1698 11.0714 19.5841 10.8286L21.2984 9.84286C21.6413 9.64286 21.7556 9.21429 21.5556 8.87143L19.4127 5.15714C19.2127 4.81429 18.7841 4.7 18.4413 4.9L16.727 5.88571C16.3127 6.12857 15.7984 6.08571 15.3841 5.84286C15.3841 5.84286 15.3698 5.84286 15.3698 5.82857C14.9556 5.57143 14.6841 5.15714 14.6841 4.68571V2.71429C14.6841 2.31429 14.3698 2 13.9698 2H9.68413C9.28413 2 8.96984 2.31429 8.96984 2.71429V4.68571C8.96984 5.15714 8.68413 5.57143 8.28413 5.81429C8.28413 5.81429 8.26984 5.81429 8.26984 5.82857C7.85556 6.07143 7.34127 6.11429 6.92698 5.87143L5.2127 4.88571C4.86984 4.68571 4.42698 4.8 4.24127 5.14286L2.09841 8.85714C1.89841 9.2 2.0127 9.64286 2.35556 9.82857L4.06984 10.8143C4.48413 11.0571 4.74127 11.5 4.74127 11.9857V12C4.74127 12.4857 4.48413 12.9286 4.06984 13.1714L2.35556 14.1571C2.0127 14.3714 1.89841 14.8 2.09841 15.1429L4.24127 18.8571C4.44127 19.2 4.86984 19.3143 5.2127 19.1143L6.92698 18.1286C7.34127 17.8857 7.85556 17.9286 8.26984 18.1714C8.26984 18.1714 8.28413 18.1714 8.28413 18.1857C8.69841 18.4286 8.96984 18.8429 8.96984 19.3143V21.2857C8.96984 21.6714 9.28413 22 9.68413 22H13.9698C14.3698 22 14.6841 21.6714 14.6841 21.2857V19.3143C14.6841 18.8429 14.9698 18.4286 15.3698 18.1857C15.3698 18.1857 15.3841 18.1857 15.3841 18.1714C15.7984 17.9286 16.3127 17.8857 16.727 18.1286L18.4413 19.1143C18.7841 19.3143 19.227 19.2 19.4127 18.8571L21.5556 15.1429C21.7556 14.8 21.6413 14.3714 21.2984 14.1714ZM11.827 14.8571C10.2556 14.8571 8.96984 13.5714 8.96984 12C8.96984 10.4286 10.2556 9.14286 11.827 9.14286C13.3984 9.14286 14.6841 10.4286 14.6841 12C14.6841 13.5714 13.3984 14.8571 11.827 14.8571Z" fill="white"/>
</svg>
