<svg width="16" height="16" viewBox="0 0 16 16" fill="none" xmlns="http://www.w3.org/2000/svg">
<path d="M14.083 1.83301H1.99871C1.82377 1.83362 1.65617 1.90339 1.53247 2.02709C1.40876 2.1508 1.33899 2.3184 1.33838 2.49334V9.18067H14.741V2.49334C14.741 2.12934 14.4447 1.83301 14.083 1.83301ZM1.33838 10.793C1.33838 11.164 1.64171 11.4673 2.01271 11.4673H14.069C14.44 11.4673 14.7434 11.164 14.7434 10.793V10.107H1.33838V10.793ZM3.87938 13.999H5.01105C5.27005 13.999 5.51738 13.8963 5.69938 13.7143L7.38638 12.0273H5.85105L3.87938 13.999ZM10.2307 12.0297H8.69538L10.3824 13.7167C10.4728 13.807 10.5801 13.8786 10.6982 13.9275C10.8163 13.9763 10.9429 14.0014 11.0707 14.0013H12.2047L10.2307 12.0297Z" fill="#0FBF60"/>
</svg>
