<svg width="15" height="14" viewBox="0 0 15 14" fill="none" xmlns="http://www.w3.org/2000/svg">
<path fill-rule="evenodd" clip-rule="evenodd" d="M6 7C7.86396 7 9.375 5.48896 9.375 3.625C9.375 1.76104 7.86396 0.25 6 0.25C4.13604 0.25 2.625 1.76104 2.625 3.625C2.625 5.48896 4.13604 7 6 7ZM6 7C2.8934 7 0.375 9.5184 0.375 12.625V13.75H11.625V13.7498L7.87515 10.0091L9.5899 8.2943C8.61585 7.48597 7.36468 7 6 7ZM14.7508 9.00171L12.547 11.2056L12.5477 11.2063L11.7522 12.0017L9.74977 9.99935L10.5453 9.20386L11.7515 10.4101L13.9553 8.20621L14.7508 9.00171Z" fill="#4E5969"/>
</svg>
