<svg width="15" height="14" viewBox="0 0 15 14" fill="none" xmlns="http://www.w3.org/2000/svg">
<path fill-rule="evenodd" clip-rule="evenodd" d="M6 7C7.86396 7 9.375 5.48896 9.375 3.625C9.375 1.76104 7.86396 0.25 6 0.25C4.13604 0.25 2.625 1.76104 2.625 3.625C2.625 5.48896 4.13604 7 6 7ZM6 7C2.8934 7 0.375 9.5184 0.375 12.625V13.75H11.625C9.34683 13.75 7.5 11.9032 7.5 9.625C7.5 8.81428 7.73388 8.05818 8.13786 7.4205C7.47875 7.14947 6.75683 7 6 7ZM11.625 11.5C12.6605 11.5 13.5 10.6605 13.5 9.625C13.5 9.31208 13.4233 9.01706 13.2878 8.7577L10.7577 11.2878C11.0171 11.4233 11.3121 11.5 11.625 11.5ZM12.4923 7.96221L9.96221 10.4923C9.82665 10.2329 9.75 9.93792 9.75 9.625C9.75 8.58947 10.5895 7.75 11.625 7.75C11.9379 7.75 12.2329 7.82665 12.4923 7.96221ZM11.625 12.625C13.2819 12.625 14.625 11.2819 14.625 9.625C14.625 7.96815 13.2819 6.625 11.625 6.625C9.96815 6.625 8.625 7.96815 8.625 9.625C8.625 11.2819 9.96815 12.625 11.625 12.625Z" fill="#F53F3F"/>
</svg>
