<svg width="16" height="16" viewBox="0 0 16 16" fill="none" xmlns="http://www.w3.org/2000/svg">
<path fill-rule="evenodd" clip-rule="evenodd" d="M7.89333 2H8.33333C8.68492 2 8.97273 2.27183 8.99817 2.61689L9 2.66667V13.3333C9 13.6849 8.72817 13.9727 8.38311 13.9982L8.33333 14H7.89333C7.76733 14 7.64427 13.9642 7.53842 13.8976L7.487 13.8617L3.59367 10.8667C3.44427 10.7521 3.35135 10.5803 3.33569 10.3945L3.33333 10.3383V5.66167C3.33333 5.47348 3.41267 5.29494 3.55056 5.16937L3.59367 5.13333L7.487 2.13833C7.58671 2.06148 7.70602 2.01474 7.83064 2.00296L7.89333 2H8.33333H7.89333ZM13.307 3.82271C14.355 4.90304 15 6.37604 15 8.00004C15 9.62871 14.351 11.106 13.2973 12.1874C13.1726 12.3154 12.968 12.3107 12.8416 12.184L12.3723 11.715C12.2373 11.58 12.244 11.36 12.3756 11.222C13.1756 10.3844 13.6666 9.24971 13.6666 8.00004C13.6666 6.75471 13.179 5.62337 12.384 4.78671C12.253 4.64837 12.2466 4.42937 12.3813 4.29471L12.8506 3.82537C12.9773 3.69871 13.182 3.69404 13.307 3.82271ZM2 5.33325C2.184 5.33325 2.33333 5.48259 2.33333 5.66659V10.3333C2.33333 10.5173 2.184 10.6666 2 10.6666H1.33333C1.14933 10.6666 1 10.5173 1 10.3333V5.66659C1 5.48259 1.14933 5.33325 1.33333 5.33325H2ZM11.4143 5.70155C11.9836 6.29955 12.3333 7.10888 12.3333 7.99988C12.3333 8.89588 11.9796 9.70955 11.4043 10.3086C11.2833 10.4346 11.084 10.4262 10.9603 10.3029L10.4986 9.84088C10.3573 9.69955 10.3736 9.46722 10.5053 9.31655C10.8133 8.96488 11 8.50422 11 7.99988C11 7.49955 10.816 7.04188 10.5123 6.69122C10.382 6.54055 10.3663 6.30922 10.507 6.16855L10.9693 5.70655C11.0933 5.58255 11.2933 5.57455 11.4143 5.70155Z" />
</svg>
