<svg width="24" height="24" viewBox="0 0 24 24" fill="none" xmlns="http://www.w3.org/2000/svg">
<path fill-rule="evenodd" clip-rule="evenodd" d="M2.99831 2.74951H21.1248C21.6673 2.74951 22.1118 3.19401 22.1118 3.74001V13.771H2.00781V3.74001C2.00873 3.4776 2.11339 3.2262 2.29894 3.04064C2.4845 2.85509 2.7359 2.75043 2.99831 2.74951ZM3.01931 17.201C2.46281 17.201 2.00781 16.746 2.00781 16.1895V15.1605H22.1153V16.1895C22.1153 16.746 21.6603 17.201 21.1038 17.201H3.01931ZM7.51681 20.9985H5.81931L8.77681 18.041H11.0798L8.54931 20.5715C8.27631 20.8445 7.90531 20.9985 7.51681 20.9985ZM13.0433 18.0445H15.3463L18.3073 21.002H16.6063C16.4146 21.0021 16.2247 20.9645 16.0476 20.8912C15.8704 20.818 15.7094 20.7105 15.5738 20.575L13.0433 18.0445ZM11.2768 11.6455C11.2768 11.9076 11.4893 12.1201 11.7515 12.1201H12.7484C13.0105 12.1201 13.223 11.9076 13.223 11.6455V8.87056H15.0119C15.135 8.87056 15.2532 8.82277 15.3417 8.73728C15.5302 8.55514 15.5354 8.25464 15.3533 8.0661L12.5794 5.19477C12.5456 5.14953 12.5034 5.11045 12.455 5.07939C12.2323 4.93649 11.9299 4.99225 11.7795 5.20396L9.12654 8.07368C9.04545 8.16139 9.00041 8.27645 9.00041 8.3959C9.00041 8.65805 9.21293 8.87056 9.47508 8.87056H11.2768V11.6455Z" fill="#17D207"/>
</svg>
