<svg width="24" height="24" viewBox="0 0 24 24" fill="none" xmlns="http://www.w3.org/2000/svg">
<path d="M21.0148 3H2.9852C2.72419 3.00091 2.47414 3.10411 2.28957 3.2871C2.10501 3.47009 2.00092 3.71801 2 3.9768V13.869H21.9965V3.9768C21.9965 3.43835 21.5544 3 21.0148 3ZM2 16.2541C2 16.8029 2.45257 17.2516 3.00609 17.2516H20.9939C21.5474 17.2516 22 16.8029 22 16.2541V15.2393H2V16.2541ZM5.79112 20.9965H7.47955C7.86597 20.9965 8.23499 20.8447 8.50653 20.5755L11.0235 18.08H8.73281L5.79112 20.9965ZM15.2672 18.0834H12.9765L15.4935 20.5789C15.6284 20.7125 15.7885 20.8185 15.9647 20.8907C16.1409 20.963 16.3298 21.0001 16.5205 21H18.2124L15.2672 18.0834Z" fill="#F53F3F"/>
<path fill-rule="evenodd" clip-rule="evenodd" d="M10.9412 8.49981L9 10.4411L10.0588 11.4999L11.9999 9.55862L13.9412 11.4999L14.9999 10.4411L13.0587 8.49981L14.9996 6.55881L13.9409 5.5L11.9999 7.441L10.0591 5.50004L9.00033 6.55885L10.9412 8.49981Z" fill="white"/>
</svg>
