<svg width="48" height="48" viewBox="0 0 48 48" fill="none" xmlns="http://www.w3.org/2000/svg">
<path fill-rule="evenodd" clip-rule="evenodd" d="M5 8.18709C5 6.42691 6.41777 5 8.16667 5H39.8333C41.5822 5 43 6.42691 43 8.18709V28.1064C43 28.3264 42.8228 28.5048 42.6042 28.5048H5.39583C5.17722 28.5048 5 28.3264 5 28.1064V8.18709ZM5.39583 30.4967C5.17722 30.4967 5 30.6751 5 30.8951V33.6838C5 35.004 6.06332 36.0741 7.375 36.0741H13.5162L10.6891 38.9195C9.76165 39.853 9.76165 41.3664 10.6891 42.2999C11.6166 43.2334 13.1204 43.2334 14.0479 42.2999L20.2338 36.0741H28.1621L34.3479 42.2999C35.2754 43.2334 36.7792 43.2334 37.7067 42.2999C38.6342 41.3664 38.6342 39.853 37.7067 38.9195L34.8796 36.0741H40.625C41.9367 36.0741 43 35.004 43 33.6838V30.8951C43 30.6751 42.8228 30.4967 42.6042 30.4967H5.39583ZM22.7021 21.4932C22.7021 21.8452 22.9874 22.1306 23.3394 22.1306H24.6778C25.0298 22.1306 25.3151 21.8452 25.3151 21.4932V17.7668H27.7169C27.8821 17.7668 28.0408 17.7027 28.1597 17.5878C28.4128 17.3432 28.4198 16.9397 28.1752 16.6865L24.451 12.8306C24.4056 12.7699 24.349 12.7174 24.284 12.6757C23.985 12.4838 23.579 12.5587 23.3771 12.843L19.8152 16.6967C19.7063 16.8145 19.6458 16.969 19.6458 17.1294C19.6458 17.4814 19.9312 17.7668 20.2831 17.7668H22.7021V21.4932Z" />
</svg>
