<svg width="48" height="48" viewBox="0 0 48 48" fill="none" xmlns="http://www.w3.org/2000/svg">
<path fill-rule="evenodd" clip-rule="evenodd" d="M38.2353 38.4847C38.892 38.9897 39.8338 38.8666 40.3387 38.2099C40.8437 37.5532 40.7207 36.6114 40.064 36.1065L4.39074 8.6762C3.73401 8.17122 2.79226 8.29424 2.28728 8.95097C1.78231 9.60769 1.90532 10.5494 2.56205 11.0544L38.2353 38.4847ZM42.291 33.9359L41.3366 33.2994L35.6696 28.9418V16.4753L42.336 12.0242C42.3621 11.9978 42.7481 11.6842 43.3489 11.6842C44.1492 11.6842 44.8001 12.4018 44.8001 13.2842V32.7127C44.8001 33.5952 44.1492 34.3128 43.3489 34.3128C42.7481 34.3128 42.362 33.9992 42.291 33.9359ZM31.2342 36.8844L3.20009 15.3281V34.7233C3.20009 36.0878 4.23503 37.1983 5.50674 37.1983H30.1109C30.5184 37.1983 30.9016 37.0842 31.2342 36.8844ZM30.1109 8.79828H9.47278L32.4175 26.4412V11.2732C32.4175 9.90868 31.3826 8.79828 30.1109 8.79828Z" fill="#F53F3F"/>
</svg>
