<svg width="48" height="48" viewBox="0 0 48 48" fill="none" xmlns="http://www.w3.org/2000/svg">
<path fill-rule="evenodd" clip-rule="evenodd" d="M32.4176 34.7239C32.4176 36.0884 31.3827 37.1988 30.111 37.1988H5.50684C4.23513 37.1988 3.2002 36.0884 3.2002 34.7239V11.2738C3.2002 9.90923 4.23513 8.79883 5.50684 8.79883H30.111C31.3827 8.79883 32.4176 9.90923 32.4176 11.2738V34.7239ZM42.3361 12.0247L35.6697 16.4758V29.5198L42.2911 33.9365C42.3621 33.9998 42.7482 34.3133 43.349 34.3133C44.1493 34.3133 44.8002 33.5957 44.8002 32.7133V13.2847C44.8002 12.4023 44.1493 11.6848 43.349 11.6848C42.7482 11.6848 42.3622 11.9983 42.3361 12.0247ZM9.20015 17.7996C10.3047 17.7996 11.2001 16.9042 11.2001 15.7996C11.2001 14.695 10.3047 13.7996 9.20015 13.7996C8.09558 13.7996 7.20015 14.695 7.20015 15.7996C7.20015 16.9042 8.09558 17.7996 9.20015 17.7996Z" />
</svg>
