<svg width="48" height="48" viewBox="0 0 48 48" fill="none" xmlns="http://www.w3.org/2000/svg">
<path fill-rule="evenodd" clip-rule="evenodd" d="M8.16667 5C6.41777 5 5 6.44793 5 8.23404V33.2979C5 35.084 6.41776 36.5319 8.16667 36.5319H14.811L20.2292 30.5728C22.265 28.3337 25.735 28.3337 27.7708 30.5728L33.189 36.5319H39.8333C41.5822 36.5319 43 35.084 43 33.2979V8.23404C43 6.44793 41.5822 5 39.8333 5H8.16667ZM20.952 32.608C22.535 30.6568 25.465 30.6568 27.048 32.608L33.3302 40.3513C34.1854 41.4053 33.4514 43 32.111 43H15.889C14.5486 43 13.8146 41.4053 14.6698 40.3513L20.952 32.608ZM24.8833 14.5779C24.8833 13.9573 25.2302 13.701 25.6556 14.0526L29.6185 17.3251C30.0438 17.6767 30.0438 18.2507 29.6185 18.6002L25.6866 21.8367C25.2592 22.1883 24.8833 21.8324 24.8833 21.3114V19.566H24.2865C22.5663 19.566 19.19 20.3286 18.3867 21.7985C18.2277 22.0675 18.0625 22.0082 18.0625 21.7985C18.0976 19.1784 22.3268 16.2321 24.8131 16.2321H24.8833V14.5779Z" fill="black"/>
</svg>
