<svg width="48" height="48" viewBox="0 0 48 48" fill="none" xmlns="http://www.w3.org/2000/svg">
<path d="M41.3487 27.9086L38.2087 26.1343C37.4499 25.6971 36.9788 24.9 36.9788 24.0257V24C36.9788 23.1257 37.4499 22.3286 38.2087 21.8914L41.3487 20.1171C41.9767 19.7571 42.1861 18.9857 41.8197 18.3686L37.8947 11.6829C37.5283 11.0657 36.7433 10.86 36.1153 11.22L32.9753 12.9943C32.2164 13.4314 31.2744 13.3543 30.5156 12.9171C30.5156 12.9171 30.4894 12.9171 30.4894 12.8914C29.7306 12.4286 29.2334 11.6829 29.2334 10.8343V7.28571C29.2334 6.56571 28.6577 6 27.9251 6H20.0749C19.3423 6 18.7666 6.56571 18.7666 7.28571V10.8343C18.7666 11.6829 18.2433 12.4286 17.5106 12.8657C17.5106 12.8657 17.4844 12.8657 17.4844 12.8914C16.7256 13.3286 15.7836 13.4057 15.0247 12.9686L11.8847 11.1943C11.2567 10.8343 10.4455 11.04 10.1053 11.6571L6.18026 18.3429C5.81392 18.96 6.02326 19.7571 6.65127 20.0914L9.79131 21.8657C10.5502 22.3029 11.0212 23.1 11.0212 23.9743V24C11.0212 24.8743 10.5502 25.6714 9.79131 26.1086L6.65127 27.8829C6.02326 28.2686 5.81392 29.04 6.18026 29.6571L10.1053 36.3429C10.4717 36.96 11.2567 37.1657 11.8847 36.8057L15.0247 35.0314C15.7836 34.5943 16.7256 34.6714 17.4844 35.1086C17.4844 35.1086 17.5106 35.1086 17.5106 35.1343C18.2694 35.5714 18.7666 36.3171 18.7666 37.1657V40.7143C18.7666 41.4086 19.3423 42 20.0749 42H27.9251C28.6577 42 29.2334 41.4086 29.2334 40.7143V37.1657C29.2334 36.3171 29.7567 35.5714 30.4894 35.1343C30.4894 35.1343 30.5156 35.1343 30.5156 35.1086C31.2744 34.6714 32.2164 34.5943 32.9753 35.0314L36.1153 36.8057C36.7433 37.1657 37.5545 36.96 37.8947 36.3429L41.8197 29.6571C42.1861 29.04 41.9767 28.2686 41.3487 27.9086ZM24 29.1429C21.1216 29.1429 18.7666 26.8286 18.7666 24C18.7666 21.1714 21.1216 18.8571 24 18.8571C26.8784 18.8571 29.2334 21.1714 29.2334 24C29.2334 26.8286 26.8784 29.1429 24 29.1429Z" fill="#1D2129"/>
</svg>
