<svg width="48" height="48" viewBox="0 0 48 48" fill="none" xmlns="http://www.w3.org/2000/svg">
<path d="M38.7228 27.4355L36.0085 25.8748C35.3526 25.4903 34.9454 24.7891 34.9454 24.02V23.9974C34.9454 23.2283 35.3526 22.5272 36.0085 22.1426L38.7228 20.5819C39.2657 20.2653 39.4466 19.5867 39.13 19.0438L35.7371 13.1629C35.4204 12.62 34.7419 12.4391 34.199 12.7557L31.4847 14.3164C30.8288 14.701 30.0145 14.6331 29.3585 14.2486C29.3585 14.2486 29.3359 14.2486 29.3359 14.226C28.68 13.8188 28.2502 13.1629 28.2502 12.4164V9.29501C28.2502 8.66168 27.7526 8.16406 27.1192 8.16406H20.3335C19.7002 8.16406 19.2026 8.66168 19.2026 9.29501V12.4164C19.2026 13.1629 18.7502 13.8188 18.1169 14.2033C18.1169 14.2033 18.0942 14.2033 18.0942 14.226C17.4383 14.6105 16.624 14.6783 15.9681 14.2938L13.2538 12.7331C12.7109 12.4164 12.0097 12.5974 11.7157 13.1403L8.32281 19.0212C8.00615 19.5641 8.1871 20.2653 8.72996 20.5593L11.4442 22.12C12.1002 22.5045 12.5073 23.2057 12.5073 23.9748V23.9974C12.5073 24.7664 12.1002 25.4676 11.4442 25.8522L8.72996 27.4129C8.1871 27.7522 8.00615 28.4307 8.32281 28.9736L11.7157 34.8545C12.0323 35.3974 12.7109 35.5784 13.2538 35.2617L15.9681 33.701C16.624 33.3164 17.4383 33.3843 18.0942 33.7688C18.0942 33.7688 18.1169 33.7688 18.1169 33.7914C18.7728 34.176 19.2026 34.8319 19.2026 35.5784V38.6998C19.2026 39.3105 19.7002 39.8307 20.3335 39.8307H27.1192C27.7526 39.8307 28.2502 39.3105 28.2502 38.6998V35.5784C28.2502 34.8319 28.7026 34.176 29.3359 33.7914C29.3359 33.7914 29.3585 33.7914 29.3585 33.7688C30.0145 33.3843 30.8288 33.3164 31.4847 33.701L34.199 35.2617C34.7419 35.5784 35.443 35.3974 35.7371 34.8545L39.13 28.9736C39.4466 28.4307 39.2657 27.7522 38.7228 27.4355ZM23.7264 28.5212C21.2383 28.5212 19.2026 26.4855 19.2026 23.9974C19.2026 21.5093 21.2383 19.4736 23.7264 19.4736C26.2145 19.4736 28.2502 21.5093 28.2502 23.9974C28.2502 26.4855 26.2145 28.5212 23.7264 28.5212Z" fill="white"/>
<circle cx="24" cy="24" r="19" fill="#F53F3F"/>
<path d="M10.5727 20.8177C12.5119 18.8785 17.6438 17.6641 23.951 17.6641C27.9077 17.6641 31.5314 18.1538 34.1366 19.0352C36.7809 19.9362 38.2304 21.1898 38.2304 22.5806V25.8909L38.25 25.9105C38.25 25.9496 38.2304 25.9888 38.2304 26.0476C38.1521 26.5764 37.917 27.0465 37.5448 27.4187C37.0356 27.928 36.3304 28.1826 35.6253 28.0847L31.4139 27.595C30.1799 27.4775 29.2985 26.4981 29.2985 25.2641L29.1809 23.0898L29.0438 23.0507C27.183 22.6001 25.4985 22.3847 23.8923 22.3847C22.2861 22.3847 20.6015 22.6001 18.7407 23.0507L18.6232 23.0898V25.2837C18.6232 25.93 18.3881 26.5177 17.9376 26.9486C17.5459 27.3404 17.0562 27.5558 16.5077 27.6146L12.316 28.0847H12.0809C11.4737 28.1043 10.9057 27.8888 10.4747 27.4775C10.0046 27.0465 9.75 26.4197 9.75 25.7538V22.5218C9.76959 21.9146 10.0438 21.3465 10.5727 20.8177Z" fill="white"/>
</svg>
