<svg width="48" height="48" viewBox="0 0 48 48" fill="none" xmlns="http://www.w3.org/2000/svg">
<path fill-rule="evenodd" clip-rule="evenodd" d="M31.6801 13.4808C31.6801 9.23923 28.2416 5.80078 24 5.80078C19.7585 5.80078 16.32 9.23923 16.32 13.4808C16.32 17.7223 19.7585 21.1608 24 21.1608C28.2416 21.1608 31.6801 17.7223 31.6801 13.4808ZM15.677 19.7208C14.8195 18.2357 13.2349 17.3208 11.52 17.3208C8.86908 17.3208 6.72005 19.4698 6.72005 22.1208C6.72005 24.7717 8.86908 26.9208 11.52 26.9208C13.2349 26.9208 14.8195 26.0059 15.677 24.5208C16.5344 23.0357 16.5344 21.2059 15.677 19.7208ZM30.7883 25.8926C28.9879 24.0922 26.5461 23.0808 24 23.0808C21.454 23.0808 19.0122 24.0922 17.2118 25.8926C15.4115 27.6929 14.4 30.1347 14.4 32.6808V42.2008H33.6V32.6808C33.6 30.1347 32.5886 27.6929 30.7883 25.8926ZM11.113 28.8523C10.8075 29.8829 10.627 30.9466 10.5754 32.0203L10.56 32.6808V42.2008H4.80005V35.5608C4.79927 32.132 7.38008 29.2524 10.7885 28.8792L11.113 28.8523ZM36.8871 28.8523C40.4337 29.0685 43.1995 32.0076 43.2001 35.5608V42.2008H37.44V32.6808C37.44 31.3502 37.248 30.0657 36.8871 28.8523ZM36.48 17.3208C38.1949 17.3208 39.7795 18.2357 40.637 19.7208C41.4944 21.2059 41.4944 23.0357 40.637 24.5208C39.7795 26.0059 38.1949 26.9208 36.48 26.9208C33.8291 26.9208 31.68 24.7717 31.68 22.1208C31.68 19.4698 33.8291 17.3208 36.48 17.3208Z" fill="black"/>
</svg>
