<svg width="20" height="20" viewBox="0 0 20 20" fill="none" xmlns="http://www.w3.org/2000/svg">
<path fill-rule="evenodd" clip-rule="evenodd" d="M10 0.833984C15.0627 0.833984 19.1667 4.93804 19.1667 10.0007C19.1667 15.0633 15.0627 19.1673 10 19.1673C4.93743 19.1673 0.833374 15.0633 0.833374 10.0007C0.833374 4.93804 4.93743 0.833984 10 0.833984ZM14.0421 7.48109L14.6313 8.07034C14.794 8.23306 14.794 8.49688 14.6313 8.6596L9.32801 13.9629C9.16529 14.1256 8.90148 14.1256 8.73876 13.9629L5.68841 10.9126C5.52569 10.7498 5.52569 10.486 5.68841 10.3233L6.27767 9.73404C6.44038 9.57132 6.7042 9.57132 6.86692 9.73404L9.03332 11.9004L13.4528 7.48109C13.6155 7.31837 13.8793 7.31837 14.0421 7.48109Z" fill="#1AC84B"/>
</svg>
