<svg width="16" height="16" viewBox="0 0 16 16" fill="none" xmlns="http://www.w3.org/2000/svg">
<path fill-rule="evenodd" clip-rule="evenodd" d="M1.875 3.33333H10.0417C10.3492 3.33333 10.6011 3.57129 10.6234 3.87313L10.625 3.91666V12.0833C10.625 12.3909 10.387 12.6428 10.0852 12.6651L10.0417 12.6667H1.875C1.56748 12.6667 1.31553 12.4287 1.29326 12.1269L1.29166 12.0833V3.91666C1.29166 3.60914 1.52963 3.3572 1.83146 3.33493L1.875 3.33333H10.0417H1.875ZM14.7083 5.53028V10.4697C14.7083 10.9231 14.1642 11.2032 13.7365 10.9699L11.5 9.74999V6.24999L13.7365 5.03007C14.1642 4.79679 14.7083 5.07685 14.7083 5.53028ZM4.5 5.66666C4.98325 5.66666 5.375 6.05841 5.375 6.54166C5.375 7.02491 4.98325 7.41666 4.5 7.41666C4.01675 7.41666 3.625 7.02491 3.625 6.54166C3.625 6.05841 4.01675 5.66666 4.5 5.66666Z" />
</svg>
