<svg width="20" height="20" viewBox="0 0 20 20" fill="none" xmlns="http://www.w3.org/2000/svg">
<path fill-rule="evenodd" clip-rule="evenodd" d="M13.9197 5.91974C13.7245 5.72448 13.4079 5.72448 13.2126 5.91974L10.1218 9.01051L6.90922 5.79788C6.71396 5.60262 6.39738 5.60262 6.20212 5.79788L5.84856 6.15144C5.6533 6.3467 5.6533 6.66328 5.84856 6.85854L9.06118 10.0712L5.84866 13.2837C5.6534 13.4789 5.65339 13.7955 5.84866 13.9908L6.20221 14.3443C6.39747 14.5396 6.71406 14.5396 6.90932 14.3443L10.1218 11.1318L13.2125 14.2225C13.4078 14.4178 13.7244 14.4178 13.9196 14.2225L14.2732 13.869C14.4684 13.6737 14.4684 13.3571 14.2732 13.1619L11.1825 10.0712L14.2733 6.9804C14.4686 6.78513 14.4686 6.46855 14.2733 6.27329L13.9197 5.91974Z" />
</svg>
