<svg width="24" height="24" viewBox="0 0 24 24" fill="none" xmlns="http://www.w3.org/2000/svg">
<path fill-rule="evenodd" clip-rule="evenodd" d="M5.57957 10.7458C5.5687 10.4972 5.39255 10.3022 5.17893 10.3021L4.36574 10.3023L4.30979 10.3083C4.11156 10.3461 3.96476 10.5519 3.97434 10.7914L3.98604 11.0095C4.27652 15.5335 7.33022 18.7882 11.1867 19.2332L11.1846 19.2791V20.4809H9.10227C8.92525 20.4809 8.78175 20.6244 8.78175 20.8014V21.763C8.78175 21.94 8.92525 22.0835 9.10227 22.0835H14.8717C15.0487 22.0835 15.1923 21.94 15.1923 21.763V20.8014C15.1923 20.6244 15.0487 20.4809 14.8717 20.4809H12.7893L12.7888 19.2558L12.7873 19.2331C13.5201 19.1486 14.224 18.9622 14.8854 18.6847L13.4239 17.243C12.962 17.3524 12.481 17.4093 11.987 17.4093C8.59405 17.4093 5.81597 14.7138 5.58383 10.8293L5.57957 10.7458ZM19.9989 10.8097C19.9452 11.9803 19.7066 13.0698 19.3166 14.0514L18.0345 12.7867C18.2147 12.2158 18.3334 11.6038 18.3815 10.9576L18.3915 10.8063C18.3926 10.7876 18.3936 10.7672 18.3946 10.7453C18.4056 10.4969 18.5817 10.3021 18.7952 10.3021H19.599C19.8206 10.3022 20.0002 10.5114 20.0002 10.7696L19.9989 10.8097ZM16.7949 10.8527C16.7949 11.0795 16.7803 11.3028 16.752 11.5216L8.54418 3.4251C9.41742 2.49623 10.6373 1.91943 11.987 1.91943C14.6423 1.91943 16.7949 4.15172 16.7949 6.90538V10.8527ZM11.987 15.8386C9.4078 15.8386 7.30293 13.7325 7.1844 11.0881L12.0002 15.8386L11.987 15.8386ZM21.4621 19.5275L4.28708 2.35255C4.10605 2.17151 3.81254 2.17151 3.6315 2.35255L2.97592 3.00813C2.79489 3.18916 2.79489 3.48267 2.97592 3.66371L20.1509 20.8387C20.3319 21.0197 20.6254 21.0197 20.8065 20.8387L21.4621 20.1831C21.6431 20.0021 21.6431 19.7085 21.4621 19.5275Z" />
</svg>
