<svg width="24" height="24" viewBox="0 0 24 24" fill="none" xmlns="http://www.w3.org/2000/svg">
<path fill-rule="evenodd" clip-rule="evenodd" d="M5.60303 10.7479C5.59218 10.4997 5.41632 10.305 5.20305 10.305L4.39119 10.3051L4.33534 10.3112C4.13744 10.3489 3.99087 10.5543 4.00044 10.7934L4.01212 11.0112C4.30213 15.5277 7.3508 18.7771 11.201 19.2213L11.1989 19.2671V20.4669H9.1199C8.94317 20.4669 8.7999 20.6102 8.7999 20.7869V21.7469C8.7999 21.9236 8.94317 22.0669 9.1199 22.0669H14.8799C15.0566 22.0669 15.1998 21.9236 15.1998 21.7469V20.7869C15.1998 20.6102 15.0566 20.4669 14.8799 20.4669H12.8009L12.8004 19.2439L12.7988 19.2213C16.7055 18.7705 19.787 15.4206 19.9986 10.8117L19.9999 10.7716C19.9999 10.5139 19.8206 10.305 19.5994 10.305H18.7969C18.5838 10.305 18.408 10.4994 18.3969 10.7474C18.3959 10.7693 18.3949 10.7896 18.3938 10.8083L18.3839 10.9594C18.0994 14.7766 15.3498 17.4005 11.9999 17.4005C8.61254 17.4005 5.83904 14.7094 5.60728 10.8313L5.60303 10.7479ZM16.7998 6.91377C16.7998 4.16464 14.6508 1.93604 11.9999 1.93604C9.34893 1.93604 7.19991 4.16464 7.19991 6.91377V10.8546C7.19991 13.6037 9.34893 15.8323 11.9999 15.8323C14.6508 15.8323 16.7998 13.6037 16.7998 10.8546V6.91377Z" fill="white"/>
</svg>
