<svg viewBox="0 0 48 48" fill="none" xmlns="http://www.w3.org/2000/svg">
<path d="M8.0784 6.58333V41.4167C8.0784 41.8366 7.91624 42.2393 7.62758 42.5363C7.33892 42.8332 6.94742 43 6.5392 43C6.13098 43 5.73948 42.8332 5.45082 42.5363C5.16216 42.2393 5 41.8366 5 41.4167V6.58333C5 6.16341 5.16216 5.76068 5.45082 5.46375C5.73948 5.16681 6.13098 5 6.5392 5C6.94742 5 7.33892 5.16681 7.62758 5.46375C7.91624 5.76068 8.0784 6.16341 8.0784 6.58333ZM26.1575 38.3133V30.3333H14.6751C14.2395 30.3334 13.8213 30.1576 13.5104 29.8437C13.1995 29.5299 13.0208 29.103 13.0127 28.655V19.155C13.0654 18.7409 13.2635 18.3609 13.5697 18.0867C13.8759 17.8126 14.2691 17.6631 14.6751 17.6667H26.1575L26.1575 9.71833C26.1477 9.41682 26.2271 9.11935 26.3854 8.86534C26.5436 8.61134 26.7731 8.41279 27.0436 8.29603C27.314 8.17926 27.6125 8.1498 27.8996 8.21152C28.1867 8.27325 28.4487 8.42325 28.651 8.64166L42.5654 22.9233C42.7032 23.0645 42.8125 23.2323 42.887 23.4171C42.9616 23.6019 43 23.7999 43 24C43 24.2001 42.9616 24.3981 42.887 24.5829C42.8125 24.7677 42.7032 24.9355 42.5654 25.0767L28.651 39.39C28.4487 39.6084 28.1867 39.7584 27.8996 39.8201C27.6125 39.8819 27.314 39.8524 27.0436 39.7356C26.7731 39.6189 26.5436 39.4203 26.3854 39.1663C26.2271 38.9123 26.1477 38.6148 26.1575 38.3133Z"/>
</svg>
