<svg width="20" height="20" viewBox="0 0 20 20"  xmlns="http://www.w3.org/2000/svg">
<g opacity="0.6">
<path d="M10.6716 9.97156C12.7484 9.74219 14.4297 8.06031 14.6591 5.98312C14.9603 3.24844 12.8291 0.9375 10.1559 0.9375C7.65406 0.9375 5.625 2.96438 5.625 5.4675V5.46969C5.625 8.14344 7.9375 10.2728 10.6716 9.97156ZM10.0009 11.25C6.97625 11.25 0.9375 12.9944 0.9375 16.4591V18.4122C0.9375 18.7725 1.22812 19.0625 1.58406 19.0625H18.4156C18.5008 19.0623 18.5851 19.0453 18.6637 19.0125C18.7423 18.9797 18.8137 18.9318 18.8738 18.8714C18.9339 18.811 18.9815 18.7393 19.0138 18.6605C19.0462 18.5818 19.0627 18.4974 19.0625 18.4122V16.4591C19.0647 12.9966 13.0259 11.25 10.0009 11.25Z"/>
</g>
</svg>
