<svg width="12" height="12" viewBox="0 0 12 12" fill="none" xmlns="http://www.w3.org/2000/svg">
<circle cx="6" cy="6" r="6" fill="#FF5F57"/>
<circle cx="6" cy="6" r="5.75" stroke="black" stroke-opacity="0.2" stroke-width="0.5"/>
<path fill-rule="evenodd" clip-rule="evenodd" d="M8.82836 3.16839C8.6331 2.97313 8.31652 2.97313 8.12126 3.16839L5.99997 5.28967L3.87872 3.16842C3.68346 2.97315 3.36687 2.97315 3.17161 3.16842C2.97635 3.36368 2.97635 3.68026 3.17161 3.87552L5.29287 5.99678L3.17151 8.11814C2.97625 8.3134 2.97625 8.62998 3.17151 8.82524C3.36677 9.02051 3.68335 9.02051 3.87862 8.82524L5.99997 6.70389L8.12136 8.82527C8.31662 9.02053 8.6332 9.02053 8.82846 8.82527C9.02373 8.63001 9.02373 8.31343 8.82846 8.11816L6.70708 5.99678L8.82836 3.8755C9.02363 3.68023 9.02363 3.36365 8.82836 3.16839Z" fill="#990000"/>
</svg>
